<mxfile host="app.diagrams.net" modified="2023-04-12T03:46:40.623Z" agent="Mozilla/5.0 (X11; Linux x86_64; rv:109.0) Gecko/20100101 Firefox/111.0" version="21.1.5" etag="E6XJgog-YtEVc4jlKT4u" type="github">
  <diagram name="Page-1" id="WJ0vv9Cc5aFge30VZRQy">
    <mxGraphModel>
      <root>
        <mxCell id="0" />
        <mxCell id="1" parent="0" />
      </root>
    </mxGraphModel>
  </diagram>
</mxfile>
